<?xml version="1.0" encoding="UTF-8" standalone="no"?>
<!-- Created with Inkscape (http://www.inkscape.org/) -->

<svg
   version="1.1"
   id="svg1"
   width="674.94525"
   height="675.83148"
   viewBox="0 0 674.94525 675.83148"
   sodipodi:docname="dw-logo.svg"
   inkscape:version="1.4 (e7c3feb1, 2024-10-09)"
   inkscape:export-filename="dw-logo.svg"
   inkscape:export-xdpi="96"
   inkscape:export-ydpi="96"
   xmlns:inkscape="http://www.inkscape.org/namespaces/inkscape"
   xmlns:sodipodi="http://sodipodi.sourceforge.net/DTD/sodipodi-0.dtd"
   xmlns="http://www.w3.org/2000/svg"
   xmlns:svg="http://www.w3.org/2000/svg">
  <defs
     id="defs1" />
  <sodipodi:namedview
     id="namedview1"
     pagecolor="#ffffff"
     bordercolor="#000000"
     borderopacity="0.25"
     inkscape:showpageshadow="2"
     inkscape:pageopacity="0.0"
     inkscape:pagecheckerboard="0"
     inkscape:deskcolor="#d1d1d1"
     inkscape:zoom="0.98535156"
     inkscape:cx="512"
     inkscape:cy="512"
     inkscape:window-width="1200"
     inkscape:window-height="1186"
     inkscape:window-x="0"
     inkscape:window-y="31"
     inkscape:window-maximized="0"
     inkscape:current-layer="g1">
    <inkscape:page
       x="0"
       y="0"
       width="674.94525"
       height="675.83148"
       id="page2"
       margin="0"
       bleed="0" />
  </sodipodi:namedview>
  <g
     inkscape:groupmode="layer"
     inkscape:label="Image"
     id="g1"
     transform="translate(-174.4588,-173.98373)">
    <path
       style="fill:currentColor"
       d="M 487.5,849.31765 C 415.79252,843.11238 355.05283,819.20556 300.99119,775.90877 272.96141,753.46034 252.61758,731.56358 232.78859,702.5 202.22456,657.70194 183.84769,608.7299 176.31314,552 c -2.23452,-16.82439 -2.51366,-60.95321 -0.48707,-77 10.09296,-79.91719 42.33461,-147.11786 96.67393,-201.49565 57.69242,-57.73326 130.22887,-91.56652 211.29734,-98.55565 27.62267,-2.38142 66.66956,-0.23846 93.70266,5.14256 99.56337,19.8184 185.78839,84.1206 233.3901,174.05037 19.5593,36.9517 32.03771,78.27171 37.25353,123.35837 1.68295,14.54779 1.67989,55.98618 -0.005,70 -11.40922,94.88515 -55.69933,174.22351 -129.43378,231.8591 -50.39735,39.3938 -109.64309,62.88105 -174.48288,69.1716 -13.07453,1.26845 -45.89559,1.72381 -56.7218,0.78695 z m 23.5,-8.69444 c 0,-0.20724 -4.3875,-2.98013 -9.75,-6.16199 -30.54497,-18.12396 -55.59045,-37.6255 -86.37742,-67.25736 -5.88363,-5.66288 -10.92328,-9.93083 -11.19923,-9.48434 -0.27595,0.44649 -0.99217,4.33793 -1.59159,8.64765 l -1.08987,7.83584 8.75406,9.54039 c 14.21063,15.48711 33.34223,32.65404 52.00357,46.66318 l 10.24953,7.69436 8.75047,0.92815 C 495.88076,840.63403 511,841.43078 511,840.62321 Z m 27.5,-1.13082 c 20.91362,-1.14981 21.08583,-0.50568 -3.5,-13.09198 -42.78981,-21.90554 -79.01381,-47.11503 -116,-80.72827 -7.02138,-6.38107 -11.74894,-10.00747 -12.13922,-9.3117 -0.35157,0.62676 -0.93702,4.28956 -1.30099,8.13956 l -0.66178,7 17.801,16.66905 c 33.31939,31.20066 50.22082,44.05342 84.80099,64.48727 11.09543,6.55642 14.62241,8.18647 17,7.85681 1.65,-0.22879 7.95,-0.68812 14,-1.02074 z m -79,-4.77152 c -11.80943,-8.72233 -25.47749,-20.66782 -40.73869,-35.60443 L 401,781.73288 l 0.0148,4.38356 c 0.0194,5.76344 2.39322,15.64385 5.19092,21.60617 2.85567,6.08587 16.91959,20.84716 21.13705,22.18514 4.02326,1.27638 29.46592,6.43413 34.15725,6.92439 0.55,0.0575 -0.35,-0.8926 -2,-2.11127 z m 123.39732,-1.71799 c 7.36853,-1.63031 13.56734,-3.13421 13.77514,-3.34201 0.2078,-0.2078 -6.046,-2.9651 -13.89732,-6.12734 C 525.36338,800.41007 468.70342,765.14419 419.25,721.75341 c -6.1875,-5.42896 -11.29489,-9.50691 -11.34976,-9.06212 -0.0549,0.44479 -0.26177,4.05393 -0.45978,8.02032 l -0.36002,7.21161 11.20978,10.44339 c 30.69625,28.59763 62.97095,52.74871 95.70978,71.61943 17.16355,9.8931 49.95365,25.96167 53,25.97231 1.375,0.005 8.5288,-1.32517 15.89732,-2.95547 z M 618.75,822.86292 c 6.7375,-2.28772 12.25,-4.44707 12.25,-4.79855 0,-0.35149 -4.6125,-2.13843 -10.25,-3.97098 -66.93871,-21.75938 -142.73354,-65.0757 -203.7386,-116.43544 -6.86874,-5.78274 -12.62812,-10.37456 -12.79863,-10.20405 -0.17052,0.17051 0.49935,4.27715 1.4886,9.12587 l 1.79863,8.81584 14.38315,12.55219 C 473.97309,763.40679 525.23248,795.08877 588,820.61994 c 8.525,3.46761 16.175,6.32673 17,6.35361 0.825,0.0269 7.0125,-1.82291 13.75,-4.11063 z M 410.59303,822.75 c -9.74869,-13.28632 -13.08085,-21.61698 -14.33538,-35.83955 l -0.75765,-8.58954 -14.43797,14.31393 -14.43798,14.31392 9.70059,4.59521 c 9.94582,4.71138 32.09177,13.30166 34.54733,13.4007 1.07403,0.0433 1.01345,-0.4333 -0.27894,-2.19467 z m 240.55508,-12.90971 c 5.97618,-2.83785 10.72656,-5.29895 10.55639,-5.46913 -0.17018,-0.17017 -5.9108,-1.93518 -12.75695,-3.92223 C 569.29331,777.32971 484.02631,731.36407 413.5,673.52412 400.50398,662.86585 391.73752,655.19438 374.26038,639.18582 368.06717,633.51301 363,629.15251 363,629.49581 c 0,1.14006 7.00333,9.85129 18.31854,22.78589 6.1498,7.02993 12.98146,15.66199 15.18146,19.18234 3.2018,5.1234 7.39234,9.23297 21,20.59422 64.24158,53.63632 129.5045,91.25782 203.76815,117.46429 8.37752,2.95629 16.08287,5.39811 17.123,5.42627 1.04014,0.0282 6.78077,-2.27069 12.75696,-5.10853 z M 373,794.14553 c 5.775,-5.41741 13.51384,-13.21973 17.19741,-17.33848 l 6.69741,-7.48865 1.54162,-9.9092 c 0.84788,-5.45006 1.80888,-11.4842 2.13555,-13.4092 0.54995,-3.24078 -0.49667,-2.36627 -14.13152,11.80774 -8.099,8.41926 -20.53491,20.29818 -27.63535,26.39761 -7.16454,6.15448 -12.52873,11.47104 -12.05341,11.94636 1.26489,1.26489 13.58385,7.79951 14.74829,7.82326 0.55,0.0112 5.725,-4.41203 11.5,-9.82944 z m 305.70443,1.25978 c 5.2284,-3.07708 9.1213,-5.93268 8.65088,-6.34577 C 686.88489,788.64644 678.85,786.3974 669.5,784.06168 592.48753,764.82316 500.07594,718.87794 425.5,662.7497 405.50373,647.69987 389.68781,634.63395 368,615.24755 352.7513,601.61698 351.89194,601.28 353.44129,609.53875 c 0.95383,5.08435 29.97338,33.12745 60.07666,58.05521 60.66571,50.23572 134.90653,92.96915 205.98205,118.56441 11.53147,4.15264 46.02774,14.70643 48.34912,14.79194 0.74201,0.0273 5.6269,-2.46792 10.85531,-5.545 z m -326.06762,-11.9993 c 12.20801,-10.30064 29.04194,-26.72559 41.72001,-40.70642 l 7.85682,-8.66417 0.54436,-10.66605 0.54437,-10.66605 -22.40119,22.49021 c -21.31692,21.40165 -33.02473,31.66837 -48.25316,42.31381 -5.6508,3.95019 -6.58288,4.98406 -5.47864,6.07701 1.26052,1.24763 12.89934,9.17268 13.71376,9.33792 0.21073,0.0427 5.49988,-4.23957 11.75367,-9.51626 z m 350.87968,-4.53216 c 4.7105,-3.36938 8.3552,-6.33549 8.09934,-6.59135 -0.25586,-0.25586 -7.76916,-1.99276 -16.69622,-3.85977 C 622.85874,753.35187 549.22927,722.47769 475,676.20643 437.31666,652.71629 406.20292,630.02506 370.15618,599.74391 c -8.4391,-7.08928 -15.56595,-12.66748 -15.83744,-12.39598 -0.27149,0.27149 -0.85757,2.10732 -1.3024,4.07961 l -0.80877,3.58599 13.64621,12.28956 c 36.81872,33.1583 66.10817,56.01433 101.14622,78.92944 61.99519,40.54525 126.70779,71.31518 187,88.91588 10.29436,3.00516 37.30865,9.66072 39.72598,9.78736 0.67428,0.0353 5.08002,-2.69254 9.79051,-6.06192 z M 337.5,768.07488 C 362.9415,748.93217 402,710.01225 402,703.80373 402,700.26316 399.84076,690 399.09587,690 c -0.34541,0 -5.7142,5.58272 -11.93064,12.40604 -19.95286,21.90076 -45.6262,43.99976 -68.41523,58.89019 -5.9125,3.86325 -10.75,7.35573 -10.75,7.76106 0,0.40533 3.02654,2.9916 6.72564,5.74727 l 6.72563,5.0103 3.02437,-2.10789 C 326.13904,776.54764 332,772.2132 337.5,768.07488 Z m 387.70876,-6.16614 c 4.01018,-3.3502 7.41311,-6.41581 7.56207,-6.81248 0.14895,-0.39667 -8.40105,-2.20095 -19,-4.00952 -24.66662,-4.20903 -57.93122,-12.51801 -82.20281,-20.53299 C 546.8245,702.56968 456.14234,651.2453 372.29939,583.81263 365.58905,578.41568 359.86311,574 359.57507,574 358.90009,574 356,579.59139 356,580.89275 c 0,1.19099 19.00104,17.40269 39,33.27482 85.7413,68.04841 179.14896,117.33418 269.73562,142.32374 13.87827,3.82851 47.18444,11.29755 50.97314,11.43093 1.31578,0.0463 5.15656,-2.38489 9.5,-6.0135 z M 314,758.84402 c 12.21373,-7.91146 26.76663,-18.94414 39.57708,-30.00373 11.28387,-9.74166 41.14577,-40.1596 42.64691,-43.441 0.73615,-1.60919 0.33803,-3.3301 -1.70153,-7.35496 l -2.66253,-5.25425 -19.17996,18.89506 C 362.13098,702.07742 348.55,714.54464 342.5,719.39007 c -11.68343,9.35722 -34.49988,24.84012 -45.82307,31.09485 -3.75269,2.07292 -6.45269,4.1167 -6,4.54175 4.19948,3.94306 11.91729,9.97309 12.7633,9.97216 0.58287,-6.4e-4 5.33477,-2.77031 10.55977,-6.15481 z m -12.8834,-16.41473 c 14.85596,-9.00825 26.32905,-17.018 39.2617,-27.40991 12.412,-9.97355 40.1665,-36.13163 45.55358,-42.93337 l 2.94227,-3.71492 -3.81849,-4.43359 -3.81849,-4.43359 -14.36858,13.99843 c -26.70054,26.01269 -49.89161,43.17623 -78.56737,58.14711 -7.04067,3.67575 -13.00049,6.84512 -13.24404,7.04302 -0.24355,0.19791 2.19162,3.02204 5.41148,6.27586 6.76789,6.83926 4.77826,7.08392 20.64794,-2.53904 z m 443.60649,1.3496 c 3.4523,-3.42161 6.27691,-6.54404 6.27691,-6.93873 0,-0.39469 -2.1375,-0.99523 -4.75,-1.33453 C 688.65867,728.02582 645.04266,717.13372 597.8836,698.45452 525.24634,669.68367 458.68133,631.5592 382.65408,575.18386 c -13.29158,-9.8559 -17.04374,-12.1953 -17.78349,-11.08768 -3.29196,4.92905 -3.2843,5.19336 0.23734,8.18002 1.86564,1.58223 11.04207,8.86134 20.39207,16.17581 63.53434,49.7027 126.43503,87.73791 194,117.30926 46.3488,20.28561 93.67106,34.26655 143,42.24809 16.16296,2.61521 15.11468,2.81476 22.22309,-4.23047 z M 284.91676,728.37885 c 29.94162,-15.75492 55.40166,-34.73439 82.83324,-61.74894 5.6375,-5.5518 10.23127,-10.32722 10.20837,-10.61204 -0.0229,-0.28483 -1.56705,-2.24467 -3.43146,-4.3552 l -3.38985,-3.83733 -9.81853,9.25902 c -29.5411,27.85768 -64.3847,51.26528 -93.58557,62.8699 -3.17187,1.26052 -5.98228,2.64013 -6.24535,3.06579 -0.57775,0.93481 8.54485,11.97995 9.89469,11.97995 0.52317,0 6.61368,-2.97952 13.53446,-6.62115 z M 762,725.25027 c 3.025,-3.63842 5.63172,-6.92835 5.79272,-7.31095 0.161,-0.38261 -3.664,-1.00845 -8.5,-1.39077 C 683.0662,710.52239 612.40021,689.86112 531.5,649.94671 485.24882,627.12737 437.83751,598.42605 388,563.0763 c -9.29512,-6.59304 -11.97932,-8.04074 -14,-7.55082 -2.47762,0.6007 -5.78796,3.11967 -4.94048,3.7594 0.24227,0.18288 4.26548,3.26222 8.94048,6.84298 51.03797,39.09196 111.14881,76.71347 163.5,102.32958 71.81386,35.13945 127.41456,52.19451 203.5,62.42197 11.29106,1.51775 10.96953,1.62422 17,-5.62914 z M 269.5,714.22433 c 29.90897,-12.93954 62.16874,-35.04255 90.79436,-62.20838 l 8.06474,-7.65347 -3.47632,-3.79333 -3.47632,-3.79332 -5.45323,4.97197 c -17.08888,15.58074 -43.99547,34.87561 -64.28404,46.09844 -9.9471,5.50234 -27.23063,13.31065 -38.922,17.58407 -3.22413,1.17849 -4.51067,2.12751 -4,2.95063 2.47222,3.98473 7.90436,10.5457 8.75281,10.57169 0.55,0.0168 5.95,-2.11088 12,-4.7283 z m 507.47684,-7.97433 4.96662,-6.75 -8.22173,-0.70399 C 769.19978,698.40881 756.95,697.35473 746.5,696.4536 699.68967,692.41704 650.85326,681.87617 607.16174,666.37879 561.44682,650.16371 523.32394,631.21176 434.5,580.5438 403.86505,563.06866 385.29969,553.36698 384.33667,554.33 c -1.03485,1.03484 56.30759,39.46723 81.16333,54.39777 69.86195,41.96521 140.25208,72.68719 202.02024,88.17231 25.98169,6.51354 56.52068,11.75276 84.97976,14.57897 20.86127,2.07169 18.77742,2.51687 24.47684,-5.22905 z m -519.92032,-7.30705 c 31.8346,-12.36702 69.68018,-36.31038 95.74696,-60.57522 l 6.30348,-5.86773 -2.58909,-3.74936 -2.5891,-3.74936 -7.71439,6.32129 c -33.06114,27.09082 -61.81716,43.77257 -95.91696,55.64272 l -13.20258,4.59583 3.70258,5.70609 c 2.03642,3.13836 4.17801,5.71211 4.7591,5.71945 0.58109,0.007 5.75609,-1.81233 11.5,-4.04371 z m 531.48827,-9.44551 c 4.41503,-6.90181 5.30775,-9.07053 3.37882,-8.20833 -0.78299,0.34998 -6.82361,2.82715 -13.42361,5.50483 -6.6,2.67768 -12.9,5.27611 -14,5.7743 -1.42768,0.6466 0.86161,1.06872 8,1.47511 5.5,0.31313 10.56809,0.65647 11.26242,0.76298 0.69433,0.10652 2.8464,-2.28248 4.78237,-5.30889 z m -27.55439,-0.95693 c 7.20001,-2.45272 18.51107,-6.84022 25.13569,-9.75 l 12.04477,-5.29051 6.1245,-12.20674 c 3.36847,-6.71371 5.88609,-12.44514 5.59472,-12.73652 -0.29138,-0.29137 -4.99835,1.93987 -10.45993,4.95833 -29.34317,16.21711 -65.01002,27.85818 -92.21161,30.09633 -4.55481,0.37477 -8.47083,0.9878 -8.70228,1.3623 -0.42495,0.68758 19.21708,3.98105 38.50999,6.45715 5.76056,0.73933 10.56363,1.39484 10.67349,1.45669 0.10986,0.0619 6.09066,-1.89431 13.29066,-4.34703 z m -515.92799,-4.4215 c 33.95548,-11.59402 66.84539,-30.32064 97.65818,-55.60392 l 9.10558,-7.47154 -1.08087,-3.52177 c -1.03475,-3.37154 -2.98001,-4.56906 -4.20425,-2.58819 -1.0618,1.71802 -27.30146,20.03088 -38.2354,26.68478 -23.07165,14.04035 -49.59373,25.72749 -71.63473,31.56633 -4.769,1.26335 -8.66237,2.75112 -8.65192,3.30615 0.0363,1.9288 5.99263,10.50915 7.29525,10.50915 0.72082,0 5.10749,-1.29645 9.74816,-2.88099 z m 464.4303,-5.16555 c 20.33775,-2.32973 42.1289,-8.36225 63.23564,-17.50574 10.51167,-4.55368 14.06391,-6.35338 32.93931,-16.68828 l 9.16765,-5.0196 3.5192,-9.19424 c 1.93556,-5.05684 3.84655,-10.4985 4.24664,-12.09258 l 0.72743,-2.89834 -2.91429,1.91832 C 752.8187,661.9674 694.06259,675.13966 631,659.93691 583.41556,648.46555 535.68649,627.16549 439.5,574.47617 c -14.31135,-7.83952 -34.87718,-18.55345 -40.75,-21.22904 -5.07421,-2.31175 -2.87487,0.65604 2.5,3.37351 2.8875,1.45989 17.67557,9.76241 32.86238,18.45006 79.17893,45.29447 115.202,63.89387 151.94452,78.45184 31.19338,12.35932 65.48148,23.00783 81.8056,25.40553 8.19951,1.20436 31.21569,1.21839 41.63021,0.0254 z M 246,665.82545 c 28.18307,-9.10093 57.99949,-24.99535 88.25,-47.04398 13.12148,-9.56383 13.75,-10.18131 13.75,-13.50869 0,-4.33782 0.0231,-4.34577 -13.27177,4.57409 -20.33069,13.64041 -35.22388,22.13099 -53.8318,30.68942 -14.07786,6.47491 -40.26275,15.39365 -52.89643,18.01688 -4.675,0.97071 -8.61077,1.84162 -8.74617,1.93537 -0.13539,0.0937 1.118,2.68911 2.78531,5.76747 l 3.03147,5.59701 7.21469,-1.96429 c 3.96809,-1.08036 10.1397,-2.90883 13.7147,-4.06328 z m 452,-4.84579 c 38.22896,-3.96651 72.70832,-17.71246 121.76285,-48.54343 6.06248,-3.81029 6.32901,-4.15627 8.33034,-10.81379 1.13711,-3.78266 2.28099,-7.43397 2.54196,-8.11404 0.28941,-0.7542 -0.74051,-1.47947 -2.64057,-1.85948 -2.56659,-0.51332 -4.02879,0.0418 -8.30481,3.1527 -35.60081,25.90071 -77.51527,44.57951 -115.18977,51.33329 -17.48236,3.13401 -46.91025,3.15678 -64.90287,0.0502 -44.34784,-7.65697 -81.2596,-21.80698 -163.09713,-62.52277 -53.40673,-26.5709 -66.2685,-32.66617 -68.88833,-32.64658 -1.20427,0.009 1.97053,2.20913 7.38833,5.12007 5.225,2.80736 23.675,12.77356 41,22.14712 41.825,22.62909 67.38573,35.69367 91,46.51182 64.00404,29.32146 110.27716,40.41011 151,36.18486 z m -468.49627,-7.4059 C 250.56978,648.47 268.79911,641.66392 290.5,630.80028 c 15.20976,-7.61413 20.16485,-10.54664 40.75,-24.1165 15.23352,-10.04203 16.75,-11.30246 16.75,-13.92176 0,-2.03805 -0.36545,-2.66042 -1.25,-2.12879 -0.6875,0.41319 -5.75,3.52209 -11.25,6.90867 -40.09685,24.68924 -77.70845,39.86344 -117.73509,47.49958 l -5.73509,1.09413 1.5759,3.68219 c 0.86674,2.02521 1.80818,4.2447 2.09208,4.9322 0.71645,1.73499 2.37184,1.59395 13.80593,-1.17624 z M 684,643.96956 c 41.31851,-3.13894 79.89184,-17.88683 127,-48.5564 l 7.5,-4.88285 -4.5,-0.69103 c -2.475,-0.38007 -7.3276,-0.72439 -10.78355,-0.76516 -5.94868,-0.0702 -6.80139,0.23846 -16,5.79111 -30.85238,18.6237 -65.40989,31.24739 -97.71645,35.69534 -15.90667,2.19003 -46.07847,1.5189 -62,-1.37909 -40.56947,-7.38434 -67.76149,-17.37503 -150,-55.11191 C 421.89965,548.55618 420,547.75919 420,549.9458 c 0,0.9059 101.85553,51.28179 119.5,59.10253 51.93366,23.01907 87.54301,32.90321 129,35.80674 1.1,0.077 8.075,-0.32144 15.5,-0.88551 z M 229,637.997 c 14.0234,-3.14014 34.22488,-9.45865 47,-14.70042 24.97224,-10.24638 73.42658,-37.51419 75.20505,-42.32186 0.40178,-1.08609 0.46463,-1.97472 0.13968,-1.97472 -0.32496,0 -8.35267,4.29273 -17.83937,9.53939 -39.48453,21.83712 -79.96905,36.59387 -115.25536,42.01099 -12.22578,1.87688 -12.38305,2.00574 -9.5918,7.85905 1.91201,4.00953 0.46275,4.03891 20.3418,-0.41243 z m -7.31657,-12.53362 c 38.79958,-7.12331 73.25805,-20.48817 119.06657,-46.18046 8.3875,-4.70423 15.25,-9.0971 15.25,-9.76192 0,-0.66483 -8.6625,3.14031 -19.25,8.45585 -47.46726,23.83135 -84.55678,35.67762 -130.07893,41.54678 -3.76849,0.48587 -4.70087,0.95634 -4.24574,2.14238 0.32076,0.83589 0.85506,2.60299 1.18734,3.92689 0.75297,3.00004 1.03554,2.99802 18.07076,-0.12952 z m 461.3428,1.49241 c 31.86284,-3.9264 61.75247,-13.87249 93.94306,-31.26054 l 11.46929,-6.19525 -4.19961,-0.30654 c -2.3098,-0.16859 -8.82098,0.13315 -14.4693,0.67055 -9.03819,0.85991 -11.44236,1.52878 -20.04913,5.57794 -30.45588,14.32831 -70.11905,22.65693 -101.22054,21.25467 -39.85171,-1.79678 -73.27152,-11.15762 -138.95819,-38.92197 -70.32273,-29.72392 -75.59138,-31.75652 -75.51765,-29.13406 0.0133,0.47268 7.32579,4.08542 16.25,8.02832 8.92421,3.94291 26.80084,12.09309 39.72584,18.11153 48.8991,22.76952 76.39437,33.85333 103.33473,41.65597 15.88049,4.5994 36.70425,8.98217 49.66527,10.45301 10.90524,1.23754 30.26168,1.26964 40.02623,0.0664 z M 223.74582,612.38191 c 23.70874,-3.84253 48.47526,-11.11924 76.43115,-22.45643 12.63598,-5.12437 49.32273,-22.75911 48.68144,-23.4004 -0.25534,-0.25534 -6.74044,2.27199 -14.41133,5.6163 -50.3418,21.94773 -91.57034,34.42165 -124.81128,37.76235 -5.42532,0.54524 -10.07891,1.20604 -10.34131,1.46845 -0.26241,0.2624 -0.19496,1.36604 0.14987,2.45252 0.73829,2.32614 1.22513,2.29724 24.30146,-1.44279 z M 683.5,610.39077 c 12.74486,-1.71977 29.66701,-5.84125 44.17606,-10.75931 11.7554,-3.98466 15.89142,-6.06839 10.32394,-5.20121 -69.24439,10.78541 -96.962,11.62826 -134.5,4.08995 -26.16471,-5.25436 -55.93058,-14.66788 -87,-27.51395 -36.70118,-15.1746 -53.01449,-21.17069 -61,-22.42105 -5.53006,-0.86589 -3.1252,0.48861 11.40453,6.42342 6.37751,2.60496 23.52047,9.80397 38.09547,15.99781 56.63391,24.06733 80.80887,32.17242 113.5,38.05293 21.81248,3.92364 42.62964,4.35005 65,1.33141 z m -476.21754,-8.8627 C 217.56684,599.34882 236.05331,593.3917 250,587.76268 281.2109,575.16567 309.26055,558.31983 338.17867,534.80504 350.06612,525.13874 382,493.99813 382,492.07226 c 0,-0.61697 -1.17696,-1.56924 -2.61547,-2.11616 -2.43822,-0.92701 -3.33621,-0.29815 -13.25,9.27893 -45.79913,44.24359 -96.77183,74.44058 -152.4536,90.31578 -6.58394,1.87712 -13.48554,3.69711 -15.3369,4.04443 -4.2334,0.79419 -4.49845,1.26163 -3.25953,5.74861 1.17062,4.23963 1.89006,4.36846 12.19796,2.18422 z M 684.5,589.15302 c 31.77418,-13.88303 64.64367,-35.39613 95,-62.17756 11.11619,-9.8071 41.19678,-39.65235 43.97682,-43.63275 1.4713,-2.10659 1.38734,-2.17372 -3.57191,-2.85579 l -5.07864,-0.69849 -16.16313,16.06416 c -47.26676,46.97731 -95.7476,79.27548 -142.16314,94.70978 -6.05,2.01177 -11.225,3.8762 -11.5,4.14318 -0.275,0.26697 5.8,0.30658 13.5,0.088 l 14,-0.3974 z m -422.53136,1.20826 c 13.74163,-3.99014 43.41151,-14.51267 49.1647,-17.43644 6.88001,-3.49641 30.86824,-22.4343 45.36269,-35.81229 9.2469,-8.53465 26.55833,-27.01583 33.08434,-35.31989 l 4.4853,-5.70734 -2.97881,-1.5404 -2.97881,-1.54041 -18.30403,18.30538 c -37.48653,37.48932 -73.24636,62.09507 -115.25688,79.30637 -10.54827,4.32152 -8.04309,4.23545 7.4215,-0.25498 z m 380.11963,0.27955 c 41.84025,-12.31616 80.78406,-34.40283 122.87901,-69.68986 13.13083,-11.0072 43.40317,-39.91386 42.61987,-40.69715 -0.2525,-0.25251 -2.80799,-0.13605 -5.67885,0.25879 -4.94057,0.6795 -5.83874,1.30668 -16.79341,11.72644 -37.938,36.08555 -81.42272,66.12946 -118.2243,81.68203 -12.34298,5.21622 -38.57975,14.00257 -48.14675,16.12371 -3.16589,0.70192 -5.57237,1.46001 -5.34775,1.68463 0.60766,0.60766 9.57758,2.01809 13.69218,2.15296 1.97355,0.0647 8.72355,-1.39401 15,-3.24155 z m 64.87376,-0.16032 c 13.64489,-1.82145 16.15319,-3.02791 41.53797,-19.97919 28.22985,-18.85113 54.69879,-41.72241 79.18859,-68.42526 C 834.45987,494.69289 840,487.88887 840,486.95602 c 0,-1.15255 -1.41775,-2.09304 -4.42397,-2.93473 -2.43319,-0.68125 -4.80403,-1.07724 -5.26854,-0.87997 -0.46451,0.19728 -6.3691,6.30466 -13.12131,13.57196 -36.4428,39.22282 -81.95469,73.93719 -119.67183,91.28012 -4.68289,2.15327 -8.51435,4.18103 -8.51435,4.50613 0,0.3251 1.4625,0.34808 3.25,0.0511 1.7875,-0.29702 8.40791,-1.22856 14.71203,-2.07009 z M 216,584.37098 c 49.21103,-14.70577 92.05214,-39.18005 135,-77.12284 6.875,-6.0738 14.43861,-13.0455 16.80802,-15.49268 l 4.30803,-4.4494 -2.32782,-1.52525 c -2.25731,-1.47904 -2.68493,-1.21252 -14.11738,8.79883 -34.44526,30.16357 -73.34105,54.75132 -110.55439,69.88632 -12.35822,5.02619 -35.23129,12.50923 -46.38853,15.17622 l -7.77208,1.85782 0.59673,3 c 1.36569,6.86583 0.75703,6.56085 8.74077,4.3798 3.96366,-1.08281 11.03165,-3.11178 15.70665,-4.50882 z m 416,-2.53939 c 42.30761,-12.46403 83.86895,-36.05175 126.33024,-71.69745 14.87338,-12.48602 27.81438,-24.32285 27.23031,-24.90693 -0.26694,-0.26693 -4.6612,1.48524 -9.76503,3.89373 -6.47686,3.05641 -11.34507,6.26719 -16.11776,10.63032 -44.26176,40.46346 -103.827,72.30478 -156.8971,83.87125 -6.99564,1.52468 -12.52177,2.96971 -12.2803,3.21118 0.24148,0.24148 2.81461,0.97407 5.71809,1.62799 4.66196,1.04997 6.44809,0.91275 15.28029,-1.1739 5.50069,-1.29956 14.72626,-3.75485 20.50126,-5.45619 z m 137.33513,-5.17117 c 17.62551,-12.05549 39.03251,-30.35786 58.98083,-50.42691 l 12.81596,-12.89353 -0.69779,-8.59989 -0.69779,-8.59989 -19.11817,19.57009 c -25.39998,26.00039 -44.90824,42.34327 -71.39085,59.80708 -7.00003,4.61613 -13.59152,9.00838 -14.64777,9.76055 -1.45658,1.03726 1.52287,0.83614 12.33513,-0.83265 l 14.25559,-2.20025 z m -176.54323,4.73109 c 50.01087,-10.26534 94.59357,-31.18533 141.89504,-66.58283 5.10299,-3.81876 9.58055,-7.43246 9.95012,-8.03045 0.79411,-1.28489 2.03227,-2.01063 -16.63706,9.75174 -33.06459,20.83192 -60.79633,35.99186 -79.78941,43.61799 -21.80691,8.75594 -51.13604,17.47976 -67.46059,20.06584 -7.79934,1.23555 -9.66205,2.27882 -5.5,3.08047 4.11047,0.79171 4.75609,0.72168 17.5419,-1.90276 z m 240.45967,0.0728 c 0.46247,-2.41929 0.39898,-2.45807 -1.38342,-0.84501 -2.21094,2.00087 -2.40878,3.38067 -0.48473,3.38067 0.76089,0 1.60155,-1.14105 1.86815,-2.53566 z m 0.61712,-9.02454 c 1.87337,-2.3816 5.05249,-20.85195 3.80394,-22.1005 -0.32649,-0.32649 -4.49179,3.05355 -9.25623,7.5112 -4.76444,4.45765 -12.40083,11.15237 -16.96976,14.87716 -4.56893,3.72479 -8.33853,7.04252 -8.37689,7.37273 -0.0384,0.33022 4.31775,1.00718 9.68025,1.50436 l 9.75,0.90396 4.75195,-3.84911 c 2.61358,-2.11701 5.59111,-4.91592 6.61674,-6.2198 z M 807.6519,569.9882 C 814.71836,564.07079 824.775,555.19126 830,550.25592 l 9.5,-8.97334 0.34779,-10.27191 0.34779,-10.2719 -12.84779,12.7529 c -15.23222,15.11972 -29.04879,27.20827 -43.38632,37.96007 -5.75381,4.31482 -10.89816,8.23751 -11.43189,8.71711 -0.55728,0.50075 3.97765,0.80947 10.6519,0.72514 l 11.62233,-0.14686 z m -600.85342,3.00006 C 252.81265,559.78607 294.681,537.94786 335,506.11932 c 11.80994,-9.32297 28,-23.32163 28,-24.21007 0,-0.3654 -0.66373,-1.21521 -1.47495,-1.88846 -1.66758,-1.38397 -0.26882,-2.28661 -17.15962,11.07332 -47.20597,37.33797 -98.49248,63.43538 -151.11543,76.89587 -3.5048,0.89649 -4.25,1.50436 -4.25,3.46678 0,3.35447 0.99309,5.54324 2.51508,5.54324 0.7156,0 7.59313,-1.80529 15.2834,-4.01174 z m 363.18922,0.97384 c 6.86824,-1.12063 12.92074,-2.47054 13.45,-2.9998 0.6164,-0.6164 0.29238,-0.9623 -0.9014,-0.9623 -3.46508,0 -45.92364,-10.89188 -62.52844,-16.04039 -31.27653,-9.69767 -64.76069,-22.82725 -89.41834,-35.06212 -6.55077,-3.25042 -12.07121,-5.74914 -12.26765,-5.5527 -0.19643,0.19644 0.25937,2.78672 1.0129,5.75619 1.55223,6.11692 1.5964,6.15127 19.66523,15.29573 7.45564,3.77323 12.17416,5.50422 16.27419,5.9702 8.76606,0.99628 21.69653,5.49485 53.84092,18.73152 24.43043,10.06015 42.47808,16.46953 47.38489,16.8281 0.55,0.0402 6.61947,-0.8438 13.4877,-1.96443 z m 37.01044,-8.4157 c 5.22397,-1.49861 10.0709,-3.04528 10.77095,-3.43705 0.70005,-0.39177 -2.22411,-1.29023 -6.49814,-1.99659 -53.11394,-8.77797 -118.20791,-28.38761 -170.19408,-51.27119 -25.19685,-11.09129 -56.98814,-28.28762 -76.06352,-41.14376 -3.01766,-2.0338 -5.83016,-3.69781 -6.25,-3.69781 -1.90932,0 -0.53335,5.31062 1.98665,7.66759 5.78529,5.41102 17.78265,12.64497 27.91781,16.83337 12.00615,4.9616 20.19982,10.0387 23.53822,14.58516 2.41963,3.29521 9.26563,7.05222 30.9522,16.98623 39.6866,18.17933 83.69053,32.88375 130.85811,43.72777 9.61601,2.21076 18.38366,4.23165 19.48366,4.49086 2.31668,0.54592 1.32491,0.74757 13.49814,-2.74458 z m -404.39908,-4.61091 c 20.8634,-6.10026 38.79126,-13.0867 59.90094,-23.34322 27.52171,-13.37192 47.62414,-25.84788 74.29269,-46.10747 20.31064,-15.42961 20.54123,-15.64588 18.97091,-17.79341 -1.21497,-1.66158 -2.11919,-1.19059 -12.0086,6.25501 -47.23156,35.55997 -103.32525,63.78912 -148.755,74.86095 -6.91955,1.68639 -7.52512,2.04199 -7.82457,4.59472 -0.30615,2.60982 0.30357,5.59793 1.14225,5.59793 0.20924,0 6.63587,-1.82903 14.28138,-4.06451 z M 355.0595,554.0273 c 7.53648,-3.26876 9.63677,-4.77995 16.1801,-11.64183 C 383.96068,529.04507 404,504.42046 404,502.12901 c 0,-0.38379 -1.28364,-1.45606 -2.85254,-2.38283 l -2.85253,-1.68503 -8.8,10.58616 c -11.99498,14.42966 -28.5054,30.85153 -43.49493,43.26166 -6.875,5.69195 -12.95,10.7668 -13.5,11.27745 -0.96671,0.89755 4.34274,-1.25808 22.5595,-9.15912 z m 282.66951,1.30452 c 5.09737,-2.01751 9.06463,-3.87151 8.81613,-4.12001 -0.2485,-0.24851 -6.43532,-1.31885 -13.74848,-2.37855 C 588.17889,542.368 526.75904,526.73447 481.5,510.32289 c -43.09054,-15.62525 -74.47451,-30.08925 -109,-50.23507 -10.84211,-6.32644 -12.12191,-6.84125 -13.26348,-5.33538 -0.69491,0.91668 -1.11434,2.13488 -0.93207,2.70712 0.87453,2.74549 37.03773,24.28803 59.69555,35.56084 57.62293,28.66878 128.03277,51.41371 196.5,63.47662 7.15,1.25972 13.21624,2.33824 13.48053,2.39669 0.26429,0.0585 4.65111,-1.54439 9.74848,-3.56189 z M 216.47426,543.81669 c 42.46235,-14.48362 83.302,-36.50129 124.77574,-67.26967 9.47588,-7.02993 11.75,-9.1951 11.75,-11.18707 0,-2.42762 -0.0987,-2.39815 -5.75,1.71699 -3.1625,2.30286 -12.05,8.34127 -19.75,13.4187 -43.21139,28.49385 -89.3791,50.28425 -130.5,61.59384 -6.325,1.73959 -11.64152,3.28512 -11.81448,3.43452 -0.17297,0.1494 -0.0186,1.84895 0.34308,3.77678 l 0.65757,3.50514 9.13118,-2.44367 c 5.02214,-1.34401 14.54276,-4.28951 21.15691,-6.54556 z M 382.90368,546 h 4.77348 l 6.47462,-8.25 C 402.86208,526.65128 412,513.46889 412,512.00211 c 0,-0.65635 -0.94284,-2.51747 -2.09521,-4.13581 l -2.0952,-2.94245 -6.53154,8.78808 c -7.79978,10.49447 -18.56519,23.28022 -24.1995,28.74102 -4.70114,4.55637 -5.15281,5.90598 -1.51345,4.5223 C 376.9759,546.43886 380.27827,546 382.90368,546 Z m 278.37956,-0.64223 c 11.55915,-5.85458 11.72623,-5.5653 -4.38573,-7.59326 C 561.0777,525.704 451.51449,492.02436 377.9747,452.02389 c -12.48421,-6.79053 -13.41853,-7.13741 -14.65816,-5.4421 -0.72822,0.99589 -0.98485,2.14912 -0.57029,2.56272 2.35641,2.35095 29.66914,17.43869 47.75375,26.3795 42.25338,20.88954 85.83412,36.96747 139.61416,51.50685 28.94373,7.82491 58.6485,13.80901 98.38584,19.82004 3.3,0.49919 6.35246,0.96195 6.78324,1.02836 0.43079,0.0664 3.13079,-1.06826 6,-2.52149 z M 404.5,543.50729 c 3.43034,-0.51435 4.53406,-1.36424 7.75,-5.9677 3.23616,-4.6324 3.74037,-6.09906 3.67971,-10.70376 -0.1331,-10.10464 -0.86707,-10.1271 -7.94385,-0.24319 -3.50767,4.89905 -7.86444,10.75371 -9.68172,13.01035 -4.01764,4.989 -4.0968,5.70751 -0.55414,5.02999 1.5125,-0.28926 4.55,-0.79582 6.75,-1.12569 z m -210.393,-5.03502 c 10.79155,-2.79637 32.58879,-10.40839 46.14572,-16.11498 31.21512,-13.13953 58.47016,-28.02984 91.45761,-49.96623 18.19147,-12.09717 24.14984,-16.86422 22.78485,-18.22921 -0.25235,-0.25235 -4.1795,1.92471 -8.727,4.83792 -57.0662,36.55756 -110.40716,61.96208 -152.25033,72.51176 -7.63673,1.92541 -9.06825,2.60752 -9.34693,4.45377 -0.48182,3.19204 0.60777,5.3336 2.36966,4.6575 0.83805,-0.32159 4.24294,-1.28933 7.56642,-2.15053 z M 435.70571,540 c 3.75272,0 1.86961,-1.68841 -6.67419,-5.98415 l -7.81724,-3.93043 -0.66797,4.45435 c -0.94004,6.26862 -0.3228,6.8263 6.73852,6.08825 3.3047,-0.34541 7.0941,-0.62802 8.42088,-0.62802 z m 248.32753,-6.51685 c 2.73172,-1.38426 4.96676,-2.8859 4.96676,-3.33696 0,-0.45107 -5.0625,-1.35883 -11.25,-2.01725 -66.19518,-7.04391 -160.25343,-29.83777 -233.75,-56.64643 -19.85048,-7.24067 -32.09837,-12.15377 -55.2908,-22.17922 -10.88494,-4.70527 -20.00758,-8.33824 -20.27254,-8.07328 -0.74303,0.74303 24.73881,14.12025 43.35563,22.76042 70.81172,32.86413 163.30651,58.89351 250.20771,70.41211 14.85351,1.9688 16.4665,1.9015 22.03324,-0.91939 z m -485.10255,-8.02561 c 25.67033,-7.54461 58.41205,-21.08015 85.06931,-35.16795 21.61116,-11.42104 63,-36.38795 63,-38.00337 0,-0.28393 -1.19491,0.26669 -2.65535,1.22361 -4.78341,3.13421 -53.53239,28.65707 -67.34465,35.25875 -35.12947,16.79041 -65.76453,28.69196 -88.267,34.29124 -2.62185,0.65239 -4.96264,1.50273 -5.20176,1.88963 -0.8,1.29443 0.65106,4.91697 1.8173,4.53684 0.6333,-0.20643 6.74527,-2.01937 13.58215,-4.02875 z M 765,485.11509 c 21.52217,-10.6553 34.1717,-13.80274 51.43189,-12.79721 5.53746,0.32259 12.70395,1.3097 15.92554,2.19356 3.22159,0.88387 5.96802,1.46788 6.10319,1.2978 0.72033,-0.90638 -3.84981,-26.9197 -7.04459,-40.09795 C 819.83871,387.95561 798.56004,344.62932 768.01273,306.61342 719.4745,246.20799 651.88152,204.72827 578,190.00851 c -26.21428,-5.22279 -38.18825,-6.37683 -66,-6.36101 -26.37256,0.015 -38.91704,1.127 -62,5.49592 -52.02503,9.84681 -100.247,32.18399 -143.5,66.47146 -14.08668,11.16678 -41.6362,38.85054 -52.15936,52.4135 -38.62431,49.78165 -62.01695,106.6202 -68.71933,166.97162 -2.32297,20.91717 -3.1245,41 -1.63636,41 2.77116,0 40.63242,-13.27931 55.51505,-19.47112 28.5719,-11.88715 69.07473,-32.45683 111.58011,-56.66683 l 15.84738,-9.02628 14.28626,6.2102 c 100.56312,43.71459 205.29465,72.63962 301.77313,83.34448 l 19.48687,2.16219 24.51313,-15.37695 C 740.46909,498.71836 757.575,488.7911 765,485.11509 Z"
       id="path1" />
  </g>
</svg>
